<?xml version="1.0" standalone="no"?>
<!DOCTYPE svg PUBLIC "-//W3C//DTD SVG 20010904//EN"
 "http://www.w3.org/TR/2001/REC-SVG-20010904/DTD/svg10.dtd">
<svg version="1.0" xmlns="http://www.w3.org/2000/svg"
 width="192.000000pt" height="192.000000pt" viewBox="0 0 192.000000 192.000000"
 preserveAspectRatio="xMidYMid meet">
<metadata>
Created by potrace 1.14, written by Peter Selinger 2001-2017
</metadata>
<g transform="translate(0.000000,192.000000) scale(0.100000,-0.100000)"
fill="#000000" stroke="none">
<path d="M115 1901 c-50 -22 -91 -69 -105 -119 -14 -53 -14 -1593 1 -1647 14
-51 73 -110 124 -124 28 -7 285 -11 835 -11 750 0 797 1 835 19 50 22 91 69
105 119 14 53 14 1593 -1 1647 -14 51 -73 110 -124 124 -28 8 -282 11 -835 11
-747 -1 -797 -2 -835 -19z"/>
</g>
</svg>
